<svg width="33" height="37" viewBox="0 0 33 37" fill="none" xmlns="http://www.w3.org/2000/svg">
<g clip-path="url(#clip0)">
<path d="M6.0117 20.3839V18.1606C12.6311 17.2578 19.3065 16.8205 25.988 16.8522C25.988 17.4424 25.988 18.0425 25.9286 18.6426C27.8277 17.8055 29.8236 17.2041 31.8709 16.8522C30.5661 13.4994 28.1884 10.6654 25.1037 8.78602C22.0189 6.90665 18.398 6.08606 14.7979 6.45049C11.1978 6.81491 7.81798 8.34416 5.17831 10.803C2.53863 13.2618 0.785353 16.514 0.188175 20.0593L6.0117 20.3839Z" fill="#FDC305"/>
<path d="M26.9784 23.837C25.8295 25.0962 25.6017 25.0175 25.6017 27.2311C25.6017 28.1263 25.6017 32.0516 25.6017 36.2622C27.8723 34.7727 29.7362 32.748 31.0271 30.3687C32.3181 27.9895 32.9959 25.3298 33 22.627C32.9869 21.603 32.8809 20.5823 32.6831 19.5772C30.6312 20.7868 28.7183 22.2152 26.9784 23.837Z" fill="#FDC305"/>
<path d="M6.29892 25.3028C6.29892 25.3028 2.54532 23.8862 1.15876 23.5025C0.779508 23.3838 0.392293 23.2917 0 23.2271C0.107354 26.0662 0.956315 28.8288 2.4635 31.2435C3.97068 33.6582 6.08426 35.642 8.59664 37L6.29892 25.3028Z" fill="#FDC305"/>
<path d="M26.0375 16.8423C26.0778 11.4105 25.6136 5.98658 24.651 0.639446C24.651 0.639446 24.5123 -0.629631 23.7695 0.403339C23.1861 1.63123 22.7857 2.93696 22.581 4.27944C18.3638 4.00965 14.1305 4.12161 9.93367 4.61392C9.15126 1.96755 7.77461 0.737825 7.11104 0.98377C6.44748 1.22972 6.39796 4.24008 6.39796 4.24008L6.07113 18.1114C12.6882 17.2221 19.3603 16.798 26.0375 16.8423V16.8423Z" fill="#F06351"/>
<path d="M12.2908 13.7729C12.2908 13.6844 13.2812 14.4419 13.6873 14.678C14.0933 14.9141 14.2914 15.0912 14.2914 15.2584C14.2914 15.4257 14.024 15.5929 13.6675 15.5929C13.3109 15.5929 12.7662 15.4749 12.6771 15.3273H13.608H13.8953C13.2918 14.884 12.7521 14.3611 12.2908 13.7729V13.7729Z" fill="black"/>
<path d="M19.699 13.8811L18.6194 15.1896C18.6194 15.2486 18.4511 15.5339 18.7977 15.4847C19.2079 15.424 19.6122 15.3285 20.006 15.1994C20.115 15.1994 20.0753 15.0125 19.8971 15.0322C19.7188 15.0518 19.2137 15.0814 18.9067 15.1404L19.7386 13.9008C19.7386 13.9008 19.8079 13.7729 19.699 13.8811Z" fill="black"/>
<path d="M16.5891 19.8724C17.0482 19.6715 17.4277 19.3257 17.6687 18.8886C17.946 18.2491 17.6687 17.9934 17.2329 17.9048C16.6366 17.7968 16.0211 17.9162 15.5096 18.2393C15.1233 18.5935 15.1729 18.9476 15.4601 19.2231C15.808 19.485 16.1872 19.7031 16.5891 19.8724V19.8724Z" fill="black"/>
<path d="M16.193 21.1021C16.082 21.3269 15.9271 21.5275 15.7374 21.6924C15.4553 21.9178 15.1086 22.0487 14.747 22.0662C14.2259 22.1075 13.7077 21.9569 13.2911 21.6432C13.0953 21.5259 12.9183 21.38 12.7662 21.2103C12.6667 21.1012 12.5452 21.0141 12.4097 20.9545C12.4097 20.9545 13.1525 24.988 14.955 25.6275C16.7575 26.2669 17.0744 24.8897 17.1339 24.5158C17.1934 23.3994 16.9102 22.2913 16.3217 21.3382C16.3019 21.0332 16.292 21.23 16.193 21.1021Z" fill="#F06351"/>
<path d="M14.5687 22.2236C14.1085 22.1594 13.6664 22.0024 13.2695 21.7621C12.8727 21.5219 12.5295 21.2035 12.2611 20.8266C12.2479 20.8138 12.2375 20.7985 12.2303 20.7816C12.2232 20.7647 12.2195 20.7466 12.2195 20.7283C12.2195 20.7099 12.2232 20.6918 12.2303 20.6749C12.2375 20.658 12.2479 20.6427 12.2611 20.6299C12.274 20.6168 12.2894 20.6064 12.3064 20.5993C12.3234 20.5922 12.3417 20.5885 12.3601 20.5885C12.3786 20.5885 12.3969 20.5922 12.4139 20.5993C12.4309 20.6064 12.4463 20.6168 12.4592 20.6299C12.9591 21.3128 13.71 21.7724 14.5489 21.9088V21.9088C14.8774 21.8842 15.1952 21.7822 15.476 21.6111C15.7568 21.44 15.9924 21.2048 16.1633 20.925L16.3019 20.7381L16.401 20.9447C16.401 20.9447 16.7674 21.6924 17.3914 21.7317C18.0153 21.7711 18.4313 21.3284 18.9859 20.4725C18.9988 20.4594 19.0142 20.449 19.0312 20.4419C19.0482 20.4348 19.0665 20.4311 19.0849 20.4311C19.1034 20.4311 19.1216 20.4348 19.1386 20.4419C19.1557 20.449 19.1711 20.4594 19.184 20.4725C19.216 20.4928 19.2389 20.5245 19.2482 20.5611C19.2574 20.5977 19.2521 20.6364 19.2335 20.6692C18.5996 21.653 17.9757 22.0859 17.3716 22.0465C17.1418 22.0133 16.9226 21.9288 16.7304 21.7993C16.5383 21.6698 16.3782 21.4987 16.2623 21.2989C16.0675 21.5689 15.8142 21.7921 15.5212 21.9521C15.2281 22.1122 14.9026 22.2049 14.5687 22.2236V22.2236Z" fill="black"/>
<path d="M25.988 18.6131C24.2097 20.2105 22.5327 21.9157 20.9667 23.719C19.4104 25.5155 17.6526 27.1295 15.7275 28.5296C15.5096 28.0082 14.1231 27.0441 14.1231 27.0441C14.1231 27.0441 11.0231 24.9388 8.9928 23.2861C7.89756 22.3686 6.86216 21.3828 5.89286 20.3348L3.91207 20.2265C6.77449 24.3639 10.9639 27.4156 15.7968 28.8838C16.6486 28.7461 19.0354 27.054 20.8181 25.6767C22.9167 23.888 24.8827 21.9515 26.7011 19.8822C27.1988 19.3028 27.5818 18.6352 27.8301 17.9146C26.7407 18.2983 25.988 18.6131 25.988 18.6131Z" fill="#F06351"/>
</g>
<defs>
<clipPath id="clip0">
<rect width="33" height="37" fill="white"/>
</clipPath>
</defs>
</svg>
